{"title":"The Sweetest Thing (2002) 1080P WEB-DL","uid":10681520,"size":3256259610,"categoryP":"video","categoryS":"hd___movies","magnet":"?xt=urn:btih:cfbbf86232614f39c07d2e235b7216245ef4f168&amp;dn=The+Sweetest+Thing+%282002%29+1080P+WEB-DL&amp;tr=udp%3A%2F%2Ftracker.openbittorrent.com%3A80&amp;tr=udp%3A%2F%2Fopen.demonii.com%3A1337&amp;tr=udp%3A%2F%2Ftracker.coppersurfer.tk%3A6969&amp;tr=udp%3A%2F%2Fexodus.desync.com%3A6969","seeders":5,"leechers":3,"uploader":"jmanwf","files":-1,"time":1407036243,"description":"Storyline\n\nTo ease their roommate through a relationship-induced depression, Christina Walters and Courtney Rockcliffe take her out on the town. During their attempts to find her &quot;Mr. Right Now&quot;, Christina meets Peter Donahue. Missing her opportunity with him that night, Christina is talked into pursuing him to his brother's wedding. \n\n\nVideo\nID : 2\nFormat : AVC\nFormat/Info : Advanced Video Codec\nFormat profile : &lt;a class=&quot;__cf_email__&quot; href=&quot;/cdn-cgi/l/email-protection&quot; data-cfemail=&quot;a4eccdc3cce4e8908a94&quot;&gt;[email&amp;#160;protected]&lt;/a&gt;&lt;script cf-hash='f9e31' type=&quot;text/javascript&quot;&gt;\n/* &lt;![CDATA[ */!function(){try{var t=&quot;currentScript&quot;in document?document.currentScript:function(){for(var t=document.getElementsByTagName(&quot;script&quot;),e=t.length;e--;)if(t[e].getAttribute(&quot;cf-hash&quot;))return t[e]}();if(t&amp;&amp;t.previousSibling){var e,r,n,i,c=t.previousSibling,a=c.getAttribute(&quot;data-cfemail&quot;);if(a){for(e=&quot;&quot;,r=parseInt(a.substr(0,2),16),n=2;a.length-n;n+=2)i=parseInt(a.substr(n,2),16)^r,e+=String.fromCharCode(i);e=document.createTextNode(e),c.parentNode.replaceChild(e,c)}}}catch(u){}}();/* ]]&gt; */&lt;/script&gt;\nFormat settings, CABAC : Yes\nFormat settings, ReFrames : 4 frames\nCodec ID : avc1\nCodec ID/Info : Advanced Video Coding\nDuration : 1h 24mn\nBit rate : 5 002 Kbps\nWidth : 1 916 pixels\nHeight : 1 076 pixels\nDisplay aspect ratio : 16:9\nFrame rate : 23.976 fps\nColor space : YUV\nChroma subsampling : 4:2:0\nBit depth : 8 bits\nScan type : Progressive\nBits/(Pixel*Frame) : 0.101\nStream size : 2.95 GiB (97%)\nLanguage : English\nEncoded date : UTC 2014-08-02 03:10:50\nTagged date : UTC 2014-08-02 03:13:04\nColor primaries : BT.709\nTransfer characteristics : BT.709\nMatrix coefficients : BT.709\n\nAudio\nID : 1\nFormat : AAC\nFormat/Info : Advanced Audio Codec\nFormat profile : LC\nCodec ID : 40\nDuration : 1h 24mn\nBit rate mode : Variable\nBit rate : 126 Kbps\nMaximum bit rate : 194 Kbps\nChannel(s) : 2 channels\nChannel positions : Front: L R\nSampling rate : 48.0 KHz\nCompression mode : Lossy\nStream size : 76.1 MiB (2%)\nLanguage : English\nEncoded date : UTC 2014-08-02 03:06:52\nTagged date : UTC 2014-08-02 03:10:49\n\n\n\n &lt;a href=&quot;\nhttp://www.imdb.com/title/tt0253867/'&quot; rel=&quot;nofollow&quot; target=&quot;_NEW&quot;&gt;\nhttp://www.imdb.com/title/tt0253867/'&lt;/a&gt;\n\n\n\nRuntime: 1 Hour 24 Minutes","torrent":{"xt":"urn:btih:cfbbf86232614f39c07d2e235b7216245ef4f168","amp;dn":"The+Sweetest+Thing+%282002%29+1080P+WEB-DL","amp;tr":["udp%3A%2F%2Ftracker.openbittorrent.com%3A80","udp%3A%2F%2Fopen.demonii.com%3A1337","udp%3A%2F%2Ftracker.coppersurfer.tk%3A6969","udp%3A%2F%2Fexodus.desync.com%3A6969"],"infoHash":"cfbbf86232614f39c07d2e235b7216245ef4f168","infoHashBuffer":{"type":"Buffer","data":[207,187,248,98,50,97,79,57,192,125,46,35,91,114,22,36,94,244,241,104]},"announce":[],"urlList":[]}}